<?xml version="1.0" standalone="no"?>
<!DOCTYPE svg PUBLIC "-//W3C//DTD SVG 20010904//EN"
 "http://www.w3.org/TR/2001/REC-SVG-20010904/DTD/svg10.dtd">
<svg version="1.0" xmlns="http://www.w3.org/2000/svg"
 width="533.000000pt" height="533.000000pt" viewBox="0 0 533.000000 533.000000"
 preserveAspectRatio="xMidYMid meet">
<metadata>
Created by potrace 1.14, written by Peter Selinger 2001-2017
</metadata>
<g transform="translate(0.000000,533.000000) scale(0.100000,-0.100000)"
fill="#000000" stroke="none">
<path d="M1875 4504 c4 -16 0 -23 -15 -27 -11 -3 -23 0 -27 5 -3 7 -1 8 5 4 7
-4 12 -2 12 3 0 17 -18 13 -29 -6 -8 -14 -10 -15 -11 -3 0 13 -1 13 -10 0 -8
-13 -10 -13 -10 1 0 9 -7 16 -15 16 -10 0 -12 -4 -5 -12 7 -8 5 -12 -5 -12 -8
0 -15 4 -15 8 0 4 -13 4 -29 -1 -19 -5 -33 -4 -40 3 -8 8 -11 8 -11 0 0 -5
-11 -9 -25 -8 -14 2 -28 -2 -32 -7 -4 -7 -1 -8 7 -3 8 5 11 3 8 -6 -3 -8 -10
-13 -16 -12 -6 2 -9 -3 -6 -11 7 -18 -23 -47 -41 -40 -8 4 -15 1 -15 -4 0 -6
9 -9 19 -7 14 2 18 -1 14 -10 -2 -8 -8 -14 -11 -13 -20 2 -25 -3 -12 -12 11
-7 11 -10 2 -10 -7 0 -24 -12 -37 -27 -18 -22 -21 -31 -12 -42 10 -12 9 -14
-4 -9 -9 4 -16 1 -16 -8 0 -7 5 -11 11 -8 6 3 3 -1 -6 -9 -10 -8 -15 -17 -11
-20 8 -9 -17 -38 -28 -31 -5 3 -6 -3 -2 -12 4 -12 3 -15 -5 -10 -8 5 -10 2 -6
-8 4 -9 1 -16 -6 -16 -7 0 -10 -7 -6 -16 3 -8 2 -13 -3 -10 -11 7 -32 -49 -23
-60 4 -5 -1 -2 -11 5 -9 8 -20 11 -24 7 -3 -3 -2 -6 4 -6 18 0 10 -33 -10 -38
-14 -4 -16 -7 -5 -13 10 -7 11 -9 0 -9 -7 0 -10 -4 -7 -10 8 -13 -1 -13 -28 1
-19 9 -18 7 3 -10 22 -17 23 -21 8 -26 -9 -4 -14 -13 -11 -21 6 -17 -13 -19
-21 -1 -4 8 -5 7 -5 -3 2 -30 -1 -41 -10 -35 -5 3 -13 0 -17 -6 -4 -7 -3 -9 3
-6 6 4 13 0 16 -7 4 -10 0 -14 -12 -11 -14 3 -17 -2 -13 -21 2 -14 0 -24 -7
-24 -7 0 -9 5 -5 12 4 7 3 8 -4 4 -6 -4 -9 -13 -5 -21 6 -18 -13 -20 -20 -2
-3 6 -3 -3 0 -22 5 -30 4 -34 -12 -27 -16 6 -16 4 -4 -11 12 -15 12 -16 -2
-11 -9 4 -16 1 -16 -8 0 -7 4 -11 9 -8 5 4 4 -3 -4 -15 -7 -12 -16 -21 -20
-21 -5 0 -8 -10 -8 -21 0 -17 -3 -19 -14 -10 -11 9 -12 7 -9 -12 5 -27 -22
-61 -40 -51 -9 5 -9 3 0 -6 15 -16 0 -50 -22 -50 -8 0 -15 -5 -15 -11 0 -5 4
-8 8 -5 5 3 9 -1 9 -9 0 -8 -4 -12 -9 -9 -7 5 -12 -10 -9 -29 1 -5 -2 -6 -6
-4 -13 8 -30 -17 -28 -40 1 -13 -3 -19 -8 -16 -6 4 -8 -1 -3 -12 6 -16 4 -16
-11 -4 -11 9 -14 10 -9 1 4 -7 1 -15 -8 -18 -9 -3 -16 -10 -16 -16 0 -5 5 -6
11 -2 8 4 7 0 -1 -15 -6 -12 -15 -19 -19 -16 -5 3 -12 -2 -15 -11 -9 -24 -7
-31 4 -14 5 8 10 10 10 4 0 -6 -7 -17 -15 -24 -8 -7 -15 -18 -15 -26 0 -7 -10
-20 -22 -29 -13 -8 -22 -19 -21 -23 6 -16 -9 -42 -19 -36 -7 5 -9 1 -5 -9 4
-12 1 -17 -11 -17 -15 0 -15 -2 -2 -10 10 -6 11 -10 3 -10 -7 0 -13 -7 -13
-15 0 -9 -6 -18 -14 -21 -8 -3 -12 -12 -9 -20 3 -8 -4 -18 -18 -23 -13 -5 -18
-10 -11 -10 6 -1 12 -6 12 -12 0 -6 -7 -8 -17 -5 -10 4 -14 4 -10 0 4 -4 1
-14 -6 -22 -10 -13 -9 -14 2 -7 10 5 12 4 7 -3 -4 -7 -13 -12 -21 -12 -8 0
-17 -4 -20 -10 -4 -6 1 -7 12 -3 15 6 16 4 6 -9 -7 -8 -9 -19 -5 -23 4 -5 1
-5 -5 -1 -12 7 -18 -12 -14 -37 1 -5 -3 -6 -8 -3 -5 4 -7 19 -5 33 3 15 2 25
-1 21 -7 -6 -16 -57 -19 -104 0 -12 -8 -21 -16 -20 -8 1 -14 -7 -14 -16 1 -11
-4 -14 -14 -10 -11 4 -14 1 -9 -11 3 -9 2 -19 -4 -23 -6 -3 -8 -12 -5 -20 3
-8 -1 -14 -9 -14 -7 0 -16 -9 -20 -19 -3 -11 -14 -22 -23 -24 -15 -4 -15 -5 1
-6 10 0 15 -6 12 -11 -4 -6 -1 -17 5 -25 7 -8 9 -15 4 -15 -5 0 0 -8 11 -17
16 -13 17 -15 3 -10 -23 8 -23 -6 -1 -24 14 -12 16 -12 8 0 -5 10 -4 12 3 7 7
-4 12 -14 12 -22 0 -10 5 -12 13 -8 9 6 9 5 0 -7 -10 -12 -8 -17 9 -28 14 -9
19 -20 15 -37 -3 -18 -1 -22 8 -14 15 13 25 3 18 -18 -4 -10 -2 -13 5 -8 8 5
10 1 5 -10 -5 -12 -3 -15 6 -9 10 6 11 2 6 -16 -4 -13 -4 -21 0 -17 4 4 13 1
20 -5 10 -9 10 -16 2 -27 -6 -8 -7 -12 -3 -8 5 4 15 0 22 -10 17 -21 18 -36 2
-26 -7 5 -8 3 -4 -5 5 -7 15 -10 23 -6 14 5 14 3 2 -12 -9 -11 -10 -14 -1 -9
7 4 12 1 12 -9 0 -9 4 -13 10 -10 6 3 10 2 10 -4 0 -5 -6 -12 -12 -14 -7 -3
-3 -6 10 -6 25 -1 28 -11 10 -30 -11 -10 -10 -12 2 -9 8 2 14 -3 12 -11 -2 -8
3 -11 12 -8 10 4 14 0 11 -13 -2 -12 1 -17 9 -14 10 4 12 -2 9 -20 -3 -16 -1
-26 6 -26 7 0 9 5 5 12 -4 6 -3 8 4 4 6 -3 9 -15 7 -26 -2 -13 2 -20 11 -20 8
0 13 -4 10 -9 -4 -5 -2 -11 4 -13 5 -1 11 -15 12 -30 2 -22 5 -25 17 -15 12
10 13 8 6 -13 -4 -14 -4 -22 0 -17 10 9 60 -72 59 -95 -1 -10 2 -15 6 -13 4 3
13 -2 19 -9 8 -10 9 -16 1 -21 -5 -3 -10 -12 -10 -18 0 -8 3 -8 9 1 6 11 13 7
28 -15 11 -15 18 -34 15 -42 -3 -9 0 -11 8 -6 9 5 11 4 6 -4 -4 -6 0 -14 10
-18 16 -6 16 -7 0 -19 -16 -11 -16 -13 3 -19 12 -3 21 -13 21 -21 0 -8 4 -13
8 -10 4 2 14 -4 21 -16 7 -11 8 -17 2 -14 -7 4 -8 1 -5 -8 3 -9 11 -13 17 -9
6 3 7 1 3 -5 -4 -7 -2 -12 3 -12 15 0 14 -27 -1 -34 -7 -3 -2 -3 10 0 21 5 23
3 17 -16 -5 -15 -4 -20 4 -16 6 4 11 2 11 -4 0 -6 5 -8 11 -4 8 4 8 0 0 -15
-10 -17 -9 -20 4 -15 11 5 13 2 9 -10 -4 -11 -1 -16 12 -16 15 0 16 -2 5 -9
-11 -7 -11 -9 0 -14 12 -5 12 -7 0 -15 -9 -7 -10 -12 -2 -16 6 -4 11 -2 11 3
0 6 5 11 11 11 5 0 7 -5 4 -10 -3 -5 -1 -10 5 -10 7 0 10 -7 7 -15 -4 -8 -1
-17 5 -21 7 -5 8 -2 3 6 -5 9 -4 11 4 6 6 -4 9 -12 6 -17 -4 -5 -1 -9 4 -9 6
0 11 -9 11 -20 0 -11 -5 -20 -12 -20 -6 0 -8 -3 -5 -6 4 -4 14 -1 24 7 9 8 14
9 10 2 -4 -6 0 -19 9 -27 8 -9 12 -16 7 -16 -4 0 -1 -5 7 -10 8 -5 15 -15 15
-22 1 -7 6 -12 13 -11 6 2 9 -3 6 -11 -3 -7 1 -20 9 -28 11 -11 12 -19 4 -34
-10 -18 -9 -18 8 -4 11 9 16 10 11 3 -4 -8 -2 -13 4 -13 6 0 9 -4 5 -9 -3 -6
3 -14 12 -20 17 -10 17 -10 -2 -11 -16 -1 -14 -4 8 -12 15 -5 25 -13 22 -18
-3 -5 2 -16 11 -24 8 -9 11 -16 5 -16 -19 0 -12 -22 9 -27 11 -3 20 -12 20
-19 0 -8 4 -14 9 -14 5 0 11 -7 15 -15 5 -13 2 -14 -15 -4 -11 6 -23 9 -25 6
-3 -2 9 -10 26 -17 19 -8 30 -20 30 -32 0 -13 5 -18 13 -15 8 3 14 -1 14 -9 0
-8 -6 -13 -14 -10 -7 3 -13 1 -13 -4 0 -9 22 -14 43 -11 4 0 7 -4 7 -9 0 -6 8
-10 18 -10 10 0 22 -3 26 -7 12 -12 35 -11 30 1 -3 8 3 12 18 10 13 -1 27 -3
31 -3 5 -1 5 -7 1 -13 -4 -7 1 -5 12 4 12 11 24 14 33 8 8 -4 21 -6 29 -3 8 3
18 0 23 -8 7 -11 9 -10 9 4 0 10 5 15 10 12 6 -4 7 -12 4 -18 -4 -7 0 -5 9 3
14 13 64 15 342 12 253 -2 324 -5 319 -15 -4 -6 -4 -9 1 -5 4 4 14 3 22 -4 8
-6 13 -7 12 -2 -4 22 3 30 24 28 12 -1 26 -3 30 -3 5 -1 6 -5 3 -9 -3 -5 1 -9
9 -9 8 0 11 5 8 10 -4 6 0 8 10 4 10 -4 17 -1 17 5 0 7 6 3 14 -8 8 -10 18
-16 22 -11 4 4 2 7 -4 7 -7 0 -12 4 -12 9 0 4 12 6 28 4 15 -2 35 -4 45 -4 13
0 17 -5 13 -15 -3 -9 -1 -12 4 -9 6 3 10 14 11 23 0 14 2 13 9 -3 7 -15 9 -16
9 -4 1 20 49 17 62 -3 7 -10 9 -10 9 0 0 6 4 12 10 12 5 0 8 -6 6 -12 -1 -7
-1 -10 1 -5 3 4 9 5 14 1 5 -3 12 1 15 9 3 9 15 13 32 10 15 -2 35 -4 45 -4
13 0 17 -5 13 -15 -3 -9 -1 -12 4 -9 6 3 10 14 11 23 0 14 2 13 9 -3 7 -15 9
-16 9 -4 1 20 49 17 62 -3 7 -10 9 -10 9 0 0 6 4 12 10 12 5 0 8 -6 6 -12 -1
-7 -1 -10 1 -5 3 4 9 5 14 1 5 -3 12 3 16 12 6 16 7 16 14 -2 7 -18 8 -18 8 0
1 18 2 18 19 -1 9 -10 14 -14 10 -9 -13 17 -9 23 15 20 12 -1 26 -3 31 -3 5
-1 2 -9 -5 -18 -12 -16 -12 -17 2 -6 9 7 20 9 24 5 5 -4 5 -1 1 5 -4 7 -3 13
3 13 5 0 12 -6 14 -12 3 -7 6 -4 6 7 1 17 3 17 11 5 5 -8 10 -10 10 -4 0 15
51 9 60 -6 6 -9 9 -9 13 1 4 12 7 11 16 -1 9 -13 11 -12 11 4 0 18 1 18 18 -1
9 -10 14 -14 10 -9 -13 17 -9 23 15 20 12 -1 26 -3 31 -3 5 -1 2 -9 -5 -18
-12 -16 -12 -17 2 -6 9 7 20 9 24 5 5 -4 5 -1 1 6 -4 6 -3 12 3 12 5 0 12 -6
14 -12 3 -7 6 -4 6 7 1 17 3 17 11 5 5 -8 10 -10 10 -4 0 15 51 9 60 -6 6 -9
9 -9 11 -1 5 14 35 17 64 6 16 -5 17 -5 5 4 -13 10 -13 12 0 20 8 5 17 8 21 5
4 -2 11 1 15 7 4 7 3 9 -3 6 -6 -4 -13 2 -16 14 -5 17 -3 18 9 8 12 -10 13 -9
8 5 -7 19 12 22 20 4 2 -7 4 -4 3 7 -2 11 -6 26 -11 33 -7 12 -4 12 15 1 21
-11 23 -11 11 3 -9 11 -10 18 -2 23 5 3 10 1 10 -6 0 -7 3 -9 6 -6 4 4 2 12
-4 20 -8 10 -4 20 16 43 15 16 28 36 30 44 2 8 10 22 17 30 7 8 14 18 15 22 8
35 14 48 22 48 5 0 6 5 2 12 -4 7 -3 8 4 4 7 -4 12 -1 12 9 0 10 5 13 12 9 7
-5 9 -2 5 8 -3 9 -3 19 1 23 4 4 7 12 7 18 1 7 7 11 13 9 8 -1 12 5 10 15 -2
12 3 18 15 17 14 -2 15 1 6 12 -9 11 -8 14 1 14 8 0 11 3 7 6 -3 4 4 15 16 25
20 18 21 19 2 13 -15 -4 -13 -1 5 9 14 9 28 13 32 11 5 -3 8 0 8 6 0 7 -7 10
-15 6 -8 -3 -15 -1 -15 4 0 6 8 10 18 10 14 0 15 2 2 10 -12 8 -10 10 9 10 24
0 24 0 5 16 -10 8 -13 13 -6 9 11 -5 16 6 13 27 0 4 5 5 13 2 7 -3 16 2 20 11
4 11 2 14 -7 10 -6 -4 -3 1 7 9 11 9 17 19 13 22 -3 3 -1 11 4 18 6 6 18 27
28 46 11 19 25 35 33 34 7 -1 14 7 14 17 0 10 -5 15 -11 11 -6 -4 -3 0 7 9 9
9 14 19 11 23 -4 3 -1 6 6 6 7 0 9 5 5 13 -6 8 -3 8 9 -1 14 -12 15 -11 11 13
-3 18 -1 24 7 20 8 -5 9 -1 4 15 -4 14 -3 20 3 16 5 -3 13 6 16 20 4 16 12 24
20 21 8 -3 13 0 13 6 -1 34 4 57 12 57 5 0 11 -6 14 -12 2 -7 3 -5 2 5 -2 9 2
17 8 17 8 0 7 4 -2 9 -11 7 -11 10 2 17 15 9 17 13 17 34 0 6 5 10 11 10 6 0
8 -9 4 -22 -5 -18 -4 -20 4 -8 6 8 8 27 6 42 -3 15 0 30 5 33 6 4 7 12 3 18
-4 7 2 5 12 -3 10 -8 16 -10 12 -3 -4 7 2 19 15 29 15 11 17 14 6 11 -10 -4
-18 -2 -18 3 0 6 8 10 18 10 14 0 15 2 2 10 -13 8 -13 10 2 10 11 0 15 5 12
14 -3 7 2 16 11 20 9 3 13 11 9 18 -5 7 -2 9 8 5 10 -3 15 0 14 11 0 9 5 16
12 14 8 -1 11 2 7 8 -3 6 -11 8 -16 5 -5 -4 -9 -2 -9 3 0 5 9 12 21 15 12 3
18 10 15 16 -3 5 1 16 9 25 9 8 16 18 15 21 -1 16 2 22 21 45 l20 25 -11 -25
c-10 -24 -10 -24 4 -6 11 14 13 23 5 32 -6 8 -6 14 0 18 5 3 12 0 14 -6 3 -7
6 2 6 20 1 17 6 32 12 32 5 0 7 -6 3 -12 -5 -9 -2 -9 9 1 18 15 23 26 7 16
-15 -9 -12 12 5 28 8 8 11 17 8 21 -4 3 -1 6 5 6 7 0 11 3 10 8 -3 13 13 52
22 52 5 0 11 -6 13 -12 3 -8 6 -6 6 5 1 9 -5 17 -11 17 -7 1 -2 7 12 15 14 8
19 14 12 15 -9 0 -8 7 5 24 10 13 21 22 25 19 4 -2 5 3 2 11 -4 10 -1 16 7 16
11 0 11 3 -1 10 -12 8 -12 10 -1 10 11 0 11 4 -2 18 -10 10 -17 24 -17 30 0 6
-8 16 -17 21 -10 6 -13 11 -6 11 6 0 21 -12 33 -27 20 -26 20 -26 8 -3 -7 14
-11 28 -10 33 1 4 -1 6 -5 6 -20 -3 -34 2 -28 11 3 6 -1 10 -9 10 -9 0 -16 4
-16 9 0 6 10 8 21 6 12 -3 18 -1 15 3 -4 4 -12 8 -17 8 -5 1 -11 2 -14 3 -3 0
-1 11 5 24 10 21 10 21 -4 3 -8 -10 -20 -15 -26 -11 -8 5 -6 12 5 25 16 18 16
18 -6 13 -19 -5 -21 -3 -17 15 6 23 -13 47 -27 34 -5 -4 -6 0 -3 9 4 9 -2 22
-13 29 -14 11 -16 17 -7 27 6 8 7 13 2 12 -18 -3 -34 1 -33 9 4 24 -3 42 -17
42 -8 0 -12 5 -9 10 4 6 12 7 18 3 7 -3 3 3 -7 15 -23 26 -34 30 -15 5 13 -16
12 -17 -3 -5 -9 8 -14 20 -11 28 3 8 0 14 -6 14 -19 0 -34 52 -19 62 10 7 10
8 -2 7 -37 -4 -46 1 -27 15 16 12 16 14 2 20 -11 4 -14 2 -9 -7 5 -9 4 -9 -6
-1 -6 7 -13 23 -13 37 -1 14 -5 23 -9 20 -5 -2 -8 1 -8 7 0 6 -4 9 -8 6 -4 -2
-14 5 -22 17 -12 20 -12 21 3 8 25 -20 21 -5 -5 20 -13 12 -16 19 -8 15 8 -4
7 -1 -4 8 -10 8 -15 20 -10 27 4 7 3 10 -4 5 -6 -3 -13 -2 -17 4 -3 5 0 10 7
11 7 0 3 5 -9 11 -29 14 -30 28 -3 23 12 -2 18 0 14 6 -3 6 -8 8 -11 5 -9 -9
-43 14 -43 29 0 8 -5 15 -11 15 -5 0 -7 5 -4 10 3 6 0 12 -7 15 -8 3 -14 15
-15 25 -1 13 2 18 9 14 7 -4 8 -2 4 5 -5 8 -12 9 -20 2 -8 -7 -12 -4 -13 11
-1 11 -10 26 -20 34 -17 13 -17 14 2 8 17 -5 17 -3 -3 8 -21 13 -21 15 -5 33
17 18 17 18 1 6 -12 -9 -18 -10 -18 -2 0 6 -7 11 -15 11 -12 0 -14 7 -9 26 5
18 3 25 -3 21 -10 -6 -42 21 -35 30 6 9 1 23 -8 18 -6 -3 -7 1 -4 9 4 9 -1 18
-10 22 -9 3 -16 12 -16 20 0 8 -4 14 -10 14 -5 0 -10 4 -10 10 0 5 6 7 14 4 8
-3 17 0 22 7 4 7 3 10 -4 5 -12 -7 -69 41 -59 50 3 3 -4 15 -15 26 -14 14 -17
23 -9 31 6 6 11 16 11 22 0 5 -4 4 -9 -4 -13 -20 -34 -2 -28 25 4 21 2 22 -11
12 -13 -10 -14 -10 -8 0 4 7 2 12 -5 12 -7 0 -9 3 -6 7 4 3 -1 12 -11 20 -11
10 -12 12 -2 8 10 -4 9 -2 -2 8 -10 8 -15 17 -11 20 3 4 1 7 -5 7 -6 0 -9 7
-5 17 4 11 3 14 -5 9 -11 -6 -14 -1 -11 20 0 3 -6 11 -14 17 -8 7 -18 25 -21
41 -6 23 -9 27 -17 15 -5 -7 -9 -9 -9 -4 0 6 6 17 13 24 6 7 8 12 2 11 -20 -4
-36 0 -31 9 3 4 -3 19 -14 31 -19 22 -24 35 -21 53 0 4 -7 7 -16 8 -12 0 -13
2 -5 6 10 4 9 9 -5 20 -11 9 -12 12 -3 8 8 -4 4 2 -8 12 -13 11 -25 32 -25 46
-2 28 -12 35 -20 15 -5 -12 -11 26 -8 45 1 5 -3 6 -9 2 -6 -3 -8 -10 -6 -14 3
-4 -9 -6 -27 -5 -17 1 -33 7 -35 13 -2 6 -8 11 -13 11 -6 0 -8 -4 -5 -9 3 -5
-9 -9 -28 -9 -25 0 -37 6 -45 22 -11 21 -11 21 -5 -1 3 -15 1 -23 -8 -24 -7 0
-23 -2 -35 -3 -12 -1 -20 1 -17 6 3 4 1 8 -5 8 -5 0 -12 -6 -14 -12 -4 -9 -6
-8 -6 2 -1 9 -11 16 -22 17 -21 2 -21 1 -3 -12 18 -13 18 -14 -1 -10 -11 2
-24 4 -28 4 -5 1 -6 5 -3 9 3 5 -1 9 -9 9 -8 0 -12 -3 -10 -7 2 -4 -9 -7 -26
-8 -19 0 -27 3 -23 10 4 6 2 8 -4 4 -5 -3 -13 0 -16 6 -3 7 -4 4 -1 -7 4 -15
0 -21 -14 -21 -11 0 -17 5 -14 10 4 5 -1 7 -9 3 -9 -3 -21 0 -27 6 -9 9 -11 8
-6 -5 9 -22 1 -23 -19 -2 -9 8 -16 11 -16 5 0 -6 -9 -11 -21 -11 -13 0 -18 4
-13 12 4 6 3 8 -4 4 -5 -3 -13 0 -16 6 -3 7 -4 4 -1 -7 4 -15 0 -21 -14 -21
-11 0 -17 5 -14 10 4 5 -1 7 -9 3 -9 -3 -21 0 -27 6 -9 9 -11 8 -6 -5 9 -22 1
-23 -19 -2 -9 8 -16 11 -16 5 0 -12 -33 -15 -44 -4 -4 4 -22 8 -39 9 -18 1
-26 -1 -19 -3 6 -3 12 -8 12 -12 0 -10 -62 -1 -78 12 -7 5 -15 7 -19 3 -3 -3
-1 -6 5 -6 7 0 12 -4 12 -8 0 -4 -9 -8 -19 -8 -11 0 -17 4 -15 8 3 4 1 8 -5 8
-5 0 -12 -6 -14 -12 -4 -9 -6 -8 -6 2 -1 9 -11 16 -22 17 -21 2 -21 1 -3 -12
18 -13 18 -14 -1 -10 -11 2 -24 4 -28 4 -5 1 -6 5 -3 9 3 5 -1 9 -9 9 -8 0
-12 -3 -10 -7 2 -4 -9 -7 -26 -8 -19 0 -27 3 -23 10 4 6 2 8 -4 4 -5 -3 -13 0
-16 6 -3 7 -4 4 -1 -7 4 -15 0 -21 -14 -21 -11 0 -17 5 -14 10 4 5 -1 7 -9 3
-9 -3 -21 0 -27 6 -9 9 -11 8 -5 -6 5 -13 2 -16 -10 -11 -9 3 -16 10 -16 16 0
5 -7 3 -15 -6 -15 -15 -50 -12 -40 3 2 4 -2 8 -9 8 -8 0 -12 -7 -8 -15 4 -12
1 -13 -13 -5 -10 6 -25 8 -35 6 -10 -3 -21 5 -28 19 -11 21 -12 21 -7 2 4 -16
0 -23 -15 -27 -11 -3 -23 0 -27 5 -3 7 -1 8 5 4 7 -4 12 -2 12 3 0 15 -6 14
-35 -5 -14 -9 -25 -12 -25 -6 0 6 6 13 13 16 6 2 3 4 -8 3 -11 -2 -26 -6 -32
-10 -7 -5 -19 -5 -25 0 -7 4 -26 8 -42 9 -19 1 -24 -1 -15 -7 7 -4 11 -11 8
-14 -8 -8 -40 5 -34 14 2 4 -2 8 -9 8 -8 0 -12 -7 -8 -15 4 -12 1 -13 -13 -5
-10 6 -25 8 -35 6 -10 -3 -21 5 -28 19 -11 21 -12 21 -7 2 4 -16 0 -23 -15
-27 -11 -3 -23 0 -27 5 -3 7 -1 8 5 4 7 -4 12 -2 12 3 0 15 -6 14 -35 -5 -14
-9 -25 -12 -25 -6 0 6 6 13 13 16 6 2 3 4 -8 3 -11 -2 -26 -6 -32 -10 -7 -5
-19 -5 -25 0 -20 13 -56 10 -51 -3 8 -22 -34 -4 -46 19 -11 22 -11 22 -6 1z
m95 -18 c0 -2 -7 -7 -16 -10 -8 -3 -12 -2 -9 4 6 10 25 14 25 6z m320 0 c0 -2
-7 -7 -16 -10 -8 -3 -12 -2 -9 4 6 10 25 14 25 6z m720 0 c0 -2 -7 -7 -16 -10
-8 -3 -12 -2 -9 4 6 10 25 14 25 6z m-1475 -195 c-3 -6 -11 -11 -17 -11 -6 0
-6 6 2 15 14 17 26 13 15 -4z"/>
<path d="M3515 4490 c3 -5 8 -10 11 -10 2 0 4 5 4 10 0 6 -5 10 -11 10 -5 0
-7 -4 -4 -10z"/>
<path d="M3773 4425 c-3 -9 -3 -18 -1 -21 3 -3 8 4 11 16 6 23 -1 27 -10 5z"/>
<path d="M3830 4319 c0 -5 5 -7 10 -4 6 3 10 8 10 11 0 2 -4 4 -10 4 -5 0 -10
-5 -10 -11z"/>
<path d="M1456 4212 c-3 -5 1 -9 9 -9 8 0 12 4 9 9 -3 4 -7 8 -9 8 -2 0 -6 -4
-9 -8z"/>
<path d="M3910 4180 c0 -5 5 -10 11 -10 5 0 7 5 4 10 -3 6 -8 10 -11 10 -2 0
-4 -4 -4 -10z"/>
<path d="M1413 4155 c0 -8 4 -12 9 -9 5 3 6 10 3 15 -9 13 -12 11 -12 -6z"/>
<path d="M4056 3937 c3 -10 9 -15 12 -12 3 3 0 11 -7 18 -10 9 -11 8 -5 -6z"/>
<path d="M4166 3735 c-3 -8 -1 -15 4 -15 6 0 10 7 10 15 0 8 -2 15 -4 15 -2 0
-6 -7 -10 -15z"/>
<path d="M1085 3571 c-3 -5 -2 -12 3 -15 5 -3 9 1 9 9 0 17 -3 19 -12 6z"/>
<path d="M930 3290 c-9 -6 -10 -10 -3 -10 6 0 15 5 18 10 8 12 4 12 -15 0z"/>
<path d="M913 3255 c0 -8 4 -12 9 -9 5 3 6 10 3 15 -9 13 -12 11 -12 -6z"/>
<path d="M875 3211 c-3 -5 -2 -12 3 -15 5 -3 9 1 9 9 0 17 -3 19 -12 6z"/>
<path d="M4513 3141 c0 -11 5 -18 9 -15 4 3 5 11 1 19 -7 21 -12 19 -10 -4z"/>
<path d="M4556 3097 c3 -10 9 -15 12 -12 3 3 0 11 -7 18 -10 9 -11 8 -5 -6z"/>
<path d="M795 3070 c-3 -5 -1 -10 4 -10 6 0 11 5 11 10 0 6 -2 10 -4 10 -3 0
-8 -4 -11 -10z"/>
<path d="M4580 3021 c0 -6 4 -13 10 -16 6 -3 7 1 4 9 -7 18 -14 21 -14 7z"/>
<path d="M4615 2970 c-3 -5 -1 -10 4 -10 6 0 11 5 11 10 0 6 -2 10 -4 10 -3 0
-8 -4 -11 -10z"/>
<path d="M676 2868 c3 -5 10 -6 15 -3 13 9 11 12 -6 12 -8 0 -12 -4 -9 -9z"/>
<path d="M626 2768 c3 -5 10 -6 15 -3 13 9 11 12 -6 12 -8 0 -12 -4 -9 -9z"/>
<path d="M580 2650 c0 -5 5 -10 11 -10 5 0 7 -5 3 -12 -4 -7 -3 -8 5 -4 9 6 9
11 0 22 -14 17 -19 18 -19 4z"/>
<path d="M4735 2590 c3 -5 8 -10 11 -10 2 0 4 5 4 10 0 6 -5 10 -11 10 -5 0
-7 -4 -4 -10z"/>
<path d="M4676 2503 c-6 -14 -5 -15 5 -6 7 7 10 15 7 18 -3 3 -9 -2 -12 -12z"/>
<path d="M686 2432 c-3 -5 1 -9 9 -9 8 0 12 4 9 9 -3 4 -7 8 -9 8 -2 0 -6 -4
-9 -8z"/>
<path d="M4579 2283 c-13 -16 -12 -17 4 -4 9 7 17 15 17 17 0 8 -8 3 -21 -13z"/>
<path d="M988 1943 c6 -2 9 -10 6 -15 -4 -7 -2 -8 5 -4 13 9 5 26 -12 25 -9 0
-8 -2 1 -6z"/>
<path d="M1010 1910 c0 -5 5 -10 11 -10 5 0 7 5 4 10 -3 6 -8 10 -11 10 -2 0
-4 -4 -4 -10z"/>
<path d="M4285 1810 c3 -5 8 -10 11 -10 2 0 4 5 4 10 0 6 -5 10 -11 10 -5 0
-7 -4 -4 -10z"/>
<path d="M1076 1792 c-3 -5 1 -9 9 -9 8 0 12 4 9 9 -3 4 -7 8 -9 8 -2 0 -6 -4
-9 -8z"/>
<path d="M4172 1628 c-7 -7 -12 -16 -12 -21 0 -5 7 -1 16 8 9 9 14 18 12 20
-2 3 -10 -1 -16 -7z"/>
<path d="M1150 1616 c0 -2 7 -7 16 -10 8 -3 12 -2 9 4 -6 10 -25 14 -25 6z"/>
<path d="M4039 1363 c-13 -16 -12 -17 4 -4 9 7 17 15 17 17 0 8 -8 3 -21 -13z"/>
<path d="M1317 1359 c7 -7 15 -10 18 -7 3 3 -2 9 -12 12 -14 6 -15 5 -6 -5z"/>
<path d="M1353 1285 c0 -8 4 -12 9 -9 5 3 6 10 3 15 -9 13 -12 11 -12 -6z"/>
<path d="M3967 1260 c3 -11 9 -22 13 -25 5 -3 6 4 3 15 -3 11 -9 22 -13 25 -5
3 -6 -4 -3 -15z"/>
<path d="M1380 1260 c-9 -6 -10 -10 -3 -10 6 0 15 5 18 10 8 12 4 12 -15 0z"/>
<path d="M1410 1211 c0 -6 4 -13 10 -16 6 -3 7 1 4 9 -7 18 -14 21 -14 7z"/>
<path d="M3819 1023 c-13 -16 -12 -17 3 -5 9 8 23 10 29 6 8 -4 9 -3 5 4 -10
17 -21 15 -37 -5z"/>
<path d="M1790 851 c0 -6 4 -13 10 -16 6 -3 7 1 4 9 -7 18 -14 21 -14 7z"/>
<path d="M2616 843 c-6 -14 -5 -15 5 -6 7 7 10 15 7 18 -3 3 -9 -2 -12 -12z"/>
<path d="M2740 856 c0 -2 8 -10 18 -17 15 -13 16 -12 3 4 -13 16 -21 21 -21
13z"/>
<path d="M2980 856 c0 -2 8 -10 18 -17 15 -13 16 -12 3 4 -13 16 -21 21 -21
13z"/>
<path d="M3374 849 c-4 -7 -3 -9 4 -5 5 3 13 0 15 -6 4 -9 6 -10 6 -1 1 17
-16 25 -25 12z"/>
<path d="M3614 849 c-4 -7 -3 -9 4 -5 5 3 13 0 15 -6 4 -9 6 -10 6 -1 1 17
-16 25 -25 12z"/>
<path d="M3693 845 c0 -8 4 -12 9 -9 5 3 6 10 3 15 -9 13 -12 11 -12 -6z"/>
</g>
</svg>
